<mxfile host="drawio-plugin" modified="2023-12-13T12:10:57.796Z" agent="5.0 (X11; Linux x86_64) AppleWebKit/537.36 (KHTML, like Gecko) Chrome/111.0.0.0 Safari/537.36" etag="9wVO6kzhQVvYsQ8-UWJx" version="20.5.3" type="embed"><diagram id="68HAYbxfbcwnkMbwHVKH" name="Page-1"><mxGraphModel dx="511" dy="379" grid="1" gridSize="10" guides="1" tooltips="1" connect="1" arrows="1" fold="1" page="1" pageScale="1" pageWidth="827" pageHeight="1169" math="0" shadow="0"><root><mxCell id="0"/><mxCell id="1" parent="0"/><mxCell id="2" value="Orthanc" style="rounded=1;whiteSpace=wrap;html=1;" vertex="1" parent="1"><mxGeometry x="220" y="240" width="70" height="60" as="geometry"/></mxCell><mxCell id="3" value="Modality&lt;br&gt;&lt;font style=&quot;font-size: 10px;&quot;&gt;e.g. Clinical PACS&lt;/font&gt;" style="rounded=1;whiteSpace=wrap;html=1;" vertex="1" parent="1"><mxGeometry x="390" y="240" width="120" height="60" as="geometry"/></mxCell><mxCell id="4" value="PyOrthanc&lt;br&gt;&lt;font style=&quot;font-size: 10px;&quot;&gt;Through `Modality`&lt;/font&gt;" style="rounded=0;whiteSpace=wrap;html=1;" vertex="1" parent="1"><mxGeometry x="60" y="240" width="90" height="60" as="geometry"/></mxCell><mxCell id="5" value="" style="endArrow=classic;startArrow=none;html=1;rounded=0;startFill=0;" edge="1" parent="1"><mxGeometry width="50" height="50" relative="1" as="geometry"><mxPoint x="160" y="270" as="sourcePoint"/><mxPoint x="210" y="270" as="targetPoint"/></mxGeometry></mxCell><mxCell id="6" value="" style="endArrow=classic;startArrow=classic;html=1;rounded=0;" edge="1" parent="1"><mxGeometry width="50" height="50" relative="1" as="geometry"><mxPoint x="298" y="270" as="sourcePoint"/><mxPoint x="378" y="270" as="targetPoint"/></mxGeometry></mxCell><mxCell id="7" value="DICOM&lt;br&gt;Communication" style="text;html=1;align=center;verticalAlign=middle;resizable=0;points=[];autosize=1;strokeColor=none;fillColor=none;" vertex="1" parent="1"><mxGeometry x="283" y="230" width="110" height="40" as="geometry"/></mxCell><mxCell id="8" value="HTTP" style="text;html=1;align=center;verticalAlign=middle;resizable=0;points=[];autosize=1;strokeColor=none;fillColor=none;" vertex="1" parent="1"><mxGeometry x="160" y="240" width="50" height="30" as="geometry"/></mxCell></root></mxGraphModel></diagram></mxfile>